HIERARCHY
ROOT Hips
{
	OFFSET 0.000000 0.000000 0.000000
	CHANNELS 6 Xposition Yposition Zposition Xrotation Yrotation Zrotation
	JOINT Chest
	{
		OFFSET 0.000000 0.009282 11.569106
		CHANNELS 6 Xposition Yposition Zposition Xrotation Yrotation Zrotation
		JOINT Chest2
		{
			OFFSET 0.000000 -0.016863 9.269641
			CHANNELS 6 Xposition Yposition Zposition Xrotation Yrotation Zrotation
			JOINT Chest3
			{
				OFFSET 0.000000 0.000000 8.374491
				CHANNELS 6 Xposition Yposition Zposition Xrotation Yrotation Zrotation
				JOINT Chest4
				{
					OFFSET 0.000000 0.000000 8.374493
					CHANNELS 6 Xposition Yposition Zposition Xrotation Yrotation Zrotation
					JOINT Neck
					{
						OFFSET 0.000000 -0.000001 12.152554
						CHANNELS 6 Xposition Yposition Zposition Xrotation Yrotation Zrotation
						JOINT Head
						{
							OFFSET 0.000000 -0.040100 7.802319
							CHANNELS 6 Xposition Yposition Zposition Xrotation Yrotation Zrotation
							End Site
							{
								OFFSET 0.000000 -0.020946 14.853096
							}
						}
					}
					JOINT RightCollar
					{
						OFFSET -2.894404 0.000000 6.791374
						CHANNELS 6 Xposition Yposition Zposition Xrotation Yrotation Zrotation
						JOINT RightShoulder
						{
							OFFSET -13.574684 0.000000 0.000000
							CHANNELS 6 Xposition Yposition Zposition Xrotation Yrotation Zrotation
							JOINT RightElbow
							{
								OFFSET -23.923903 0.000000 0.000000
								CHANNELS 6 Xposition Yposition Zposition Xrotation Yrotation Zrotation
								JOINT RightWrist
								{
									OFFSET -19.846718 -0.012765 0.000000
									CHANNELS 6 Xposition Yposition Zposition Xrotation Yrotation Zrotation
									End Site
									{
										OFFSET -14.973145 0.000000 0.000000
									}
								}
							}
						}
					}
					JOINT LeftCollar
					{
						OFFSET 2.894404 0.000000 6.791374
						CHANNELS 6 Xposition Yposition Zposition Xrotation Yrotation Zrotation
						JOINT LeftShoulder
						{
							OFFSET 13.574684 0.000000 0.000000
							CHANNELS 6 Xposition Yposition Zposition Xrotation Yrotation Zrotation
							JOINT LeftElbow
							{
								OFFSET 23.923903 0.000000 0.000000
								CHANNELS 6 Xposition Yposition Zposition Xrotation Yrotation Zrotation
								JOINT LeftWrist
								{
									OFFSET 19.846718 -0.012765 0.000000
									CHANNELS 6 Xposition Yposition Zposition Xrotation Yrotation Zrotation
									End Site
									{
										OFFSET 14.973145 0.000000 0.000000
									}
								}
							}
						}
					}
				}
			}
		}
	}
	JOINT RightHip
	{
		OFFSET -9.469263 -0.004642 0.045487
		CHANNELS 6 Xposition Yposition Zposition Xrotation Yrotation Zrotation
		JOINT RightKnee
		{
			OFFSET 0.000000 -0.002666 -40.478676
			CHANNELS 6 Xposition Yposition Zposition Xrotation Yrotation Zrotation
			JOINT RightAnkle
			{
				OFFSET 0.000000 -0.049110 -35.224068
				CHANNELS 6 Xposition Yposition Zposition Xrotation Yrotation Zrotation
				JOINT RightToe
				{
					OFFSET 0.000000 -12.539530 -6.151390
					CHANNELS 6 Xposition Yposition Zposition Xrotation Yrotation Zrotation
					End Site
					{
						OFFSET 0.000000 -5.044995 -1.291870
					}
				}
			}
		}
	}
	JOINT LeftHip
	{
		OFFSET 9.469263 -0.004642 0.045487
		CHANNELS 6 Xposition Yposition Zposition Xrotation Yrotation Zrotation
		JOINT LeftKnee
		{
			OFFSET 0.000000 -0.002666 -40.478676
			CHANNELS 6 Xposition Yposition Zposition Xrotation Yrotation Zrotation
			JOINT LeftAnkle
			{
				OFFSET 0.000000 -0.049110 -35.224068
				CHANNELS 6 Xposition Yposition Zposition Xrotation Yrotation Zrotation
				JOINT LeftToe
				{
					OFFSET 0.000000 -12.539530 -6.151390
					CHANNELS 6 Xposition Yposition Zposition Xrotation Yrotation Zrotation
					End Site
					{
						OFFSET 0.000000 -5.044995 -1.291870
					}
				}
			}
		}
	}
}
MOTION
Frames: 4
Frame Time: 0.016667
103.856827 -83.771973 82.391296 3.867887 6.130266 -112.709603 -0.000000 0.009293 11.569103 4.198257 0.416426 0.318844 0.000000 -0.016863 9.269635 1.891169 0.072237 0.112556 -0.000004 -0.000011 8.374481 1.891170 0.072237 0.112566 0.000002 -0.000008 8.374488 1.418390 0.053830 0.084648 0.000004 -0.000008 12.152538 22.673195 -2.358555 -2.966975 0.000007 -0.040083 7.802327 5.864815 -3.519125 -6.072891 -2.894395 -0.000004 6.791368 -6.480279 -9.163420 -3.464686 -13.574694 0.000005 0.000020 23.075567 -44.040329 1.833162 -23.923880 0.000004 -0.000011 60.237521 5.961533 63.638840 -19.846727 -0.012759 0.000009 -46.204819 21.815387 87.083163 2.894403 -0.000003 6.791366 -5.003292 6.245648 -3.440946 13.574682 -0.000014 0.000012 9.329277 44.041978 7.614336 23.923904 -0.000012 -0.000017 64.167722 21.225445 -58.762474 19.846727 -0.012759 0.000004 -17.196444 -17.970095 -62.628579 -9.469263 -0.004633 0.045486 9.327314 -7.883363 -6.842862 0.000127 -0.002690 -40.478500 3.608891 -2.705262 -2.874258 -0.000675 -0.049187 -35.224285 -5.234115 0.212115 14.719727 -0.000003 -12.539531 -6.151396 -0.263628 0.216533 -0.032897 9.469267 -0.004638 0.045485 -8.371724 5.841886 5.647816 -0.000352 -0.002690 -40.478683 -0.267667 1.988107 7.558937 -0.000186 -0.049261 -35.223228 18.570157 -4.016668 4.184576 -0.000005 -12.539537 -6.151410 -0.514915 0.326398 0.040763 
103.778236 -83.708939 82.394974 3.859330 6.119377 -112.673635 0.000005 0.009280 11.569099 4.186580 0.392660 0.321959 -0.000000 -0.016863 9.269642 1.884353 0.069919 0.105474 0.000010 -0.000001 8.374484 1.884353 0.069919 0.105474 -0.000001 0.000000 8.374493 1.413276 0.052115 0.079324 0.000001 0.000002 12.152551 22.412745 -2.343131 -2.985643 -0.000003 -0.040102 7.802319 5.381927 -3.474527 -6.110621 -2.894405 -0.000003 6.791368 -6.495304 -9.161698 -3.431621 -13.574680 -0.000009 0.000001 23.073016 -44.062285 1.784494 -23.923927 -0.000017 -0.000017 60.245745 5.958129 63.613998 -19.846704 -0.012779 0.000005 -46.184879 21.825863 87.105129 2.894406 -0.000002 6.791374 -5.023063 6.253941 -3.438427 13.574686 -0.000011 -0.000014 9.363325 44.059860 7.630032 23.923897 -0.000018 0.000005 64.168835 21.257454 -58.741430 19.846718 -0.012772 -0.000004 -17.197049 -17.965271 -62.628784 -9.469265 -0.004643 0.045486 9.399846 -7.899688 -6.820804 0.000139 -0.002682 -40.478512 3.573143 -2.692312 -2.885808 -0.000683 -0.049206 -35.224300 -5.229240 0.207584 14.842063 -0.000000 -12.539529 -6.151401 -0.297359 0.182850 -0.035960 9.469263 -0.004643 0.045480 -8.320383 5.824748 5.600856 -0.000339 -0.002690 -40.478668 -0.272363 2.020305 7.556673 -0.000186 -0.049260 -35.223221 18.613030 -4.048368 4.283565 -0.000001 -12.539534 -6.151406 -0.465091 0.292050 0.050489 
103.695732 -83.666466 82.394516 3.835401 6.102506 -112.638104 -0.000003 0.009283 11.569109 4.165910 0.385775 0.325966 0.000000 -0.016858 9.269652 1.873949 0.068244 0.101422 -0.000006 0.000018 8.374495 1.873950 0.068244 0.101429 -0.000010 -0.000001 8.374497 1.405474 0.050873 0.076279 0.000001 -0.000011 12.152535 22.163375 -2.316372 -3.008658 -0.000005 -0.040094 7.802306 4.920270 -3.408321 -6.152619 -2.894401 -0.000012 6.791367 -6.455574 -9.148345 -3.409694 -13.574680 0.000000 -0.000015 23.035252 -44.089650 1.761765 -23.923895 0.000003 -0.000018 60.267287 5.954999 63.585646 -19.846720 -0.012768 0.000003 -46.163408 21.831475 87.121310 2.894403 -0.000009 6.791362 -5.048944 6.265818 -3.433411 13.574687 0.000004 0.000001 9.404841 44.069227 7.655063 23.923891 0.000010 0.000014 64.170078 21.286098 -58.729020 19.846712 -0.012780 -0.000004 -17.181267 -17.964297 -62.607665 -9.469261 -0.004641 0.045485 9.453748 -7.917833 -6.791918 0.000134 -0.002676 -40.478508 3.536293 -2.682226 -2.906351 -0.000677 -0.049200 -35.224304 -5.277014 0.191296 14.626210 -0.000010 -12.539518 -6.151384 -0.298973 0.169318 -0.062357 9.469263 -0.004642 0.045489 -8.278358 5.837892 5.598976 -0.000356 -0.002696 -40.478691 -0.283753 2.038103 7.559431 -0.000189 -0.049266 -35.223225 18.645286 -4.093534 4.315989 0.000007 -12.539519 -6.151400 -0.421298 0.258107 0.062147 
103.622925 -83.612747 82.390556 3.830936 6.073730 -112.610429 -0.000003 0.009289 11.569110 4.144928 0.361304 0.334652 -0.000007 -0.016862 9.269647 1.863341 0.067843 0.099309 -0.000009 0.000002 8.374496 1.863341 0.067843 0.099307 0.000002 0.000009 8.374491 1.397517 0.050580 0.074687 0.000007 0.000002 12.152539 21.921407 -2.273772 -3.031500 -0.000001 -0.040098 7.802311 4.473251 -3.313338 -6.189369 -2.894406 -0.000004 6.791367 -6.424049 -9.138874 -3.395696 -13.574677 -0.000007 -0.000006 23.007255 -44.095216 1.752910 -23.923887 -0.000007 -0.000010 60.304560 5.940539 63.570101 -19.846716 -0.012784 0.000005 -46.147104 21.837532 87.128454 2.894404 -0.000000 6.791368 -5.056486 6.274409 -3.442029 13.574673 0.000001 -0.000011 9.383405 44.079623 7.722016 23.923910 -0.000020 -0.000003 64.185111 21.290410 -58.717770 19.846712 -0.012778 0.000004 -17.173109 -17.951528 -62.579969 -9.469273 -0.004643 0.045486 9.515971 -7.934171 -6.771866 0.000140 -0.002674 -40.478519 3.483927 -2.671866 -2.907972 -0.000683 -0.049195 -35.224304 -5.300855 0.168714 14.616769 -0.000003 -12.539524 -6.151392 -0.299659 0.148069 -0.057193 9.469257 -0.004640 0.045488 -8.239885 5.815969 5.610720 -0.000353 -0.002684 -40.478676 -0.301312 2.076655 7.576977 -0.000198 -0.049264 -35.223225 18.653913 -4.157543 4.348297 -0.000006 -12.539546 -6.151412 -0.367024 0.231085 0.069999 
